<svg width="16" height="16" viewBox="0 0 16 16" fill="none" xmlns="http://www.w3.org/2000/svg">
<g id="Layer 2">
<g id="Layer 2_2">
<path id="edit" d="M14.5918 3.10914L11.9963 0.513643C11.6576 0.195454 11.2137 0.0128823 10.7491 0.000656222C10.2845 -0.0115699 9.8316 0.147403 9.47659 0.447335L0.951242 8.97268C0.645055 9.28145 0.454408 9.68616 0.411303 10.1189L0.00398129 14.0689C-0.00877929 14.2077 0.00922374 14.3475 0.056707 14.4785C0.10419 14.6095 0.179984 14.7284 0.278687 14.8267C0.367199 14.9145 0.472171 14.984 0.587583 15.0311C0.702994 15.0783 0.826576 15.1022 0.951242 15.1015H1.0365L4.98657 14.7415C5.41928 14.6984 5.82398 14.5077 6.13276 14.2016L14.6581 5.67621C14.989 5.32664 15.1678 4.86016 15.1554 4.37897C15.143 3.89779 14.9403 3.44116 14.5918 3.10914ZM4.81606 12.847L1.97428 13.1122L2.23004 10.2704L7.58207 4.98471L10.1397 7.54232L4.81606 12.847ZM11.3711 6.27299L8.83245 3.73433L10.6796 1.83981L13.2656 4.42583L11.3711 6.27299Z" fill="#FC8A21"/>
</g>
</g>
</svg>
